<?xml version="1.0" encoding="UTF-8" standalone="no"?><!DOCTYPE svg PUBLIC "-//W3C//DTD SVG 1.1//EN" "http://www.w3.org/Graphics/SVG/1.1/DTD/svg11.dtd"><svg width="100%" height="100%" viewBox="0 0 842 1191" version="1.1" xmlns="http://www.w3.org/2000/svg" xmlns:xlink="http://www.w3.org/1999/xlink" xml:space="preserve" xmlns:serif="http://www.serif.com/" style="fill-rule:evenodd;clip-rule:evenodd;stroke-linejoin:round;stroke-miterlimit:2;"><path id="shape0" d="M402.603,378.785l1.072,-0.104l1.14,-0.029l1.186,0.029l1.207,0.073l1.206,0.101l1.181,0.112l1.132,0.108l0.756,-1.432l0.594,-1.319l0.465,-1.232l0.374,-1.169l0.316,-1.129l0.294,-1.114l0.307,-1.123l-1.309,-0.433l-1.239,-0.474l-1.18,-0.507l-1.132,-0.535l-1.096,-0.556l-1.071,-0.57l-1.058,-0.579l-1.055,-0.579l-1.063,-0.575l-1.084,-0.563l0.613,1.095l0.579,1.099l0.576,1.1l0.601,1.096l0.656,1.09l0.739,1.079l0.853,1.065l0.996,1.047l-1.108,0.631l-1.873,0.872l-1.961,0.075l-1.591,0.081l-2.458,0.548l-2.28,0.575l-2.109,0.597l-1.946,0.62l-1.789,0.638l-1.641,0.656l-1.5,0.671l-1.367,0.685l-1.24,0.695l-1.122,0.705l-1.01,0.712l-0.907,0.716l-0.811,0.72l-0.722,0.72l-0.641,0.719l-0.567,0.715l-0.502,0.71l-0.442,0.703l-0.391,0.693l-0.348,0.681l-0.311,0.668l-0.282,0.651l-0.262,0.634l-0.247,0.614l-0.241,0.592l0.868,-0.741l0.881,-0.723l0.892,-0.705l0.905,-0.687l0.915,-0.668l0.928,-0.65l0.938,-0.632l0.95,-0.613l0.961,-0.596l0.972,-0.577l0.982,-0.559l0.993,-0.541l1.003,-0.523l1.014,-0.504l1.024,-0.487l1.033,-0.468l1.044,-0.451l1.053,-0.432l1.063,-0.415l1.072,-0.396l1.082,-0.378l1.09,-0.361l1.1,-0.342l1.108,-0.325l1.117,-0.306l1.125,-0.289m-21.195,0.155l1.075,-1.268l1.07,-1.045l1.068,-0.851l1.065,-0.689l1.062,-0.554l1.06,-0.452l1.059,-0.378l1.059,-0.335l1.058,-0.322l1.058,-0.339l1.06,-0.385l-0.932,-0.751l-0.946,-0.741l-0.958,-0.732l-0.97,-0.723l-0.981,-0.716l-0.99,-0.709l-1,-0.702l-1.007,-0.696l-1.015,-0.692l-1.02,-0.687l-1.026,-0.683l-1.03,-0.68l-1.033,-0.677l-1.036,-0.676l-1.038,-0.675l-1.037,-0.675l-1.038,-0.674l-1.036,-0.676l-1.033,-0.677l-1.031,-0.68l-1.026,-0.683l-1.022,-0.686l-1.015,-0.691l0.545,1.016l0.557,1.01l0.567,1.004l0.576,1l0.581,0.996l0.585,0.995l0.587,0.994l0.586,0.994l0.584,0.995l0.578,0.998l0.572,1.002l0.562,1.007l0.551,1.013l0.538,1.02l0.522,1.028l0.504,1.038l0.484,1.048l0.462,1.06l0.438,1.073l0.412,1.088l0.383,1.102l0.352,1.119m37.968,74.668l-0.369,-1.066l-0.892,-0.442l-0.31,0l-0.892,0.442l-0.369,1.066l0.369,1.067l0.892,0.441l0.31,0l0.892,-0.441l0.369,-1.067m-40.453,-38.164l1.149,3.82l0.761,0.479l0.785,0.465l0.808,0.452l0.832,0.437l0.856,0.422l0.88,0.406l0.904,0.39l0.929,0.374l0.954,0.356l0.978,0.338l1.004,0.32l1.029,0.301l1.054,0.282l1.08,0.261l1.105,0.241l1.132,0.22l1.158,0.198l1.184,0.176l1.211,0.153l1.238,0.129l1.265,0.106l-1.085,0.539l-1.082,0.563l-1.077,0.586l-1.073,0.609l-1.069,0.629l-1.065,0.649l-1.06,0.667l-1.056,0.684l-1.051,0.701l-1.047,0.715l-1.042,0.728l-1.037,0.741l-1.032,0.752l-1.027,0.762l-1.022,0.77l-1.016,0.778l-1.011,0.784l-1.006,0.789l-1,0.793l-0.995,0.796l-0.989,0.797l-0.983,0.797l-0.977,0.796l-0.971,0.793l-0.964,0.791l0.342,-0.771l0.511,-0.91l0.66,-1.023l0.792,-1.111l0.907,-1.173l1.003,-1.209l1.082,-1.219l1.142,-1.204l1.185,-1.162l1.211,-1.095l1.217,-1.002l1.207,-0.884l-0.505,-1.08l-0.784,-0.902l-1.007,-0.742l-1.174,-0.6l-1.283,-0.478l-1.336,-0.372l-1.332,-0.287l-1.271,-0.22l-1.155,-0.171l-0.98,-0.14l-0.75,-0.129l-0.74,-0.077l-0.796,-0.055l-0.851,-0.034l-0.907,-0.013l-0.962,0.008l-1.017,0.03l-1.073,0.05l-1.128,0.071l-1.183,0.093l-1.238,0.113l-1.294,0.135l-1.349,0.156l-1.405,0.177l0.989,-0.264l1.043,-0.34l1.086,-0.409l1.122,-0.473l1.146,-0.533l1.163,-0.586l1.169,-0.635l1.166,-0.679l1.154,-0.716l1.133,-0.749l1.101,-0.777l1.061,-0.799l1.011,-0.816l0.952,-0.828l0.883,-0.834l0.805,-0.835l0.718,-0.832m35.214,55.539l0.473,1.812l0.939,1.577l0.376,0.159l0.041,0.052l0.395,0.131l1.411,0.593l0.188,-0.063l0.188,0.063l1.411,-0.593l0.395,-0.131l0.041,-0.052l0.376,-0.159l0.939,-1.577l0.473,-1.812l0.008,-0.65l-0.038,-0.713l-0.083,-0.776l-0.128,-0.841l-0.173,-0.904l-0.218,-0.967l-0.264,-1.031l-0.309,-1.095l-0.354,-1.159l-0.206,-0.629l-0.304,-1.03l-0.33,-1.08l-0.327,-1.054l-0.32,-1.024l-0.306,-0.987l-0.286,-0.943l-0.37,0l-0.286,0.943l-0.306,0.987l-0.32,1.024l-0.327,1.054l-0.33,1.08l-0.304,1.03l-0.206,0.629l-0.354,1.159l-0.309,1.095l-0.264,1.031l-0.218,0.967l-0.173,0.904l-0.128,0.841l-0.083,0.776l-0.038,0.713l0.008,0.65m-60.436,-73.804l0.969,0.222l0.996,0.211l1.018,0.2l1.038,0.189l1.054,0.177l1.068,0.165l1.079,0.152l1.087,0.141l1.091,0.127l1.093,0.113l1.091,0.1l1.087,0.086l1.08,0.072l1.069,0.057l1.055,0.042l1.04,0.026l1.019,0.01l0.998,-0.005l0.971,-0.022l0.943,-0.039l0.912,-0.055l0.877,-0.074l1.209,-0.583l1.209,-0.573l1.211,-0.563l1.21,-0.553l1.209,-0.542l1.207,-0.532l1.204,-0.52l1.202,-0.509l1.197,-0.498l1.193,-0.485l1.187,-0.473l1.181,-0.461l1.174,-0.448l1.166,-0.435l1.158,-0.421l1.149,-0.408l1.138,-0.393l1.128,-0.38l1.116,-0.365l1.104,-0.35l1.091,-0.335l1.078,-0.32l1.062,-0.304l1.048,-0.288l1.032,-0.272l1.015,-0.255l0.997,-0.239l0.979,-0.221l0.961,-0.205l0.94,-0.186l0.921,-0.169l0.899,-0.15l0.877,-0.132l0.854,-0.113l0.549,-0.063l-0.03,-0.051l0.273,-0.215l0.259,-0.296l0.245,-0.374l0.231,-0.447l0.218,-0.519l0.206,-0.587l0.194,-0.652l0.183,-0.715l0.172,-0.773l0.161,-0.83l0.152,-0.883l0.143,-0.933l0.135,-0.98l0.126,-1.025l0.119,-1.065l0.11,-1.088l-0.109,-19.794c0.553,-2.081 0.89,-3.122 1.01,-3.122c0.142,0 0.459,1.041 0.952,3.122l-0.109,19.794l0.11,1.088l0.119,1.065l0.126,1.025l0.135,0.98l0.143,0.933l0.152,0.883l0.161,0.83l0.172,0.773l0.183,0.715l0.194,0.652l0.206,0.587l0.218,0.519l0.231,0.447l0.245,0.374l0.259,0.296l0.273,0.215l-0.03,0.051l0.549,0.063l0.854,0.113l0.877,0.132l0.899,0.15l0.921,0.169l0.94,0.186l0.96,0.205l0.98,0.221l0.997,0.239l1.015,0.255l1.032,0.272l1.048,0.288l1.062,0.304l1.078,0.32l1.091,0.335l1.104,0.35l1.116,0.365l1.128,0.38l1.138,0.393l1.149,0.408l1.158,0.421l1.166,0.435l1.174,0.448l1.181,0.461l1.187,0.473l1.193,0.485l1.197,0.498l1.201,0.509l1.205,0.52l1.207,0.532l1.21,0.542l1.21,0.553l1.21,0.563l1.21,0.573l1.208,0.583l0.877,0.074l0.912,0.055l0.943,0.039l0.972,0.022l0.997,0.005l1.02,-0.01l1.039,-0.026l1.055,-0.042l1.07,-0.057l1.079,-0.072l1.087,-0.086l1.092,-0.1l1.092,-0.113l1.092,-0.127l1.086,-0.141l1.079,-0.152l1.068,-0.165l1.055,-0.177l1.038,-0.189l1.018,-0.2l0.995,-0.211l0.97,-0.222l-1.176,0.757l-1.159,0.729l-1.144,0.701l-1.128,0.674l-1.112,0.646l-1.096,0.618l-1.081,0.591l-1.064,0.563l-1.049,0.535l-1.033,0.508l-1.017,0.48l-1.001,0.452l-0.985,0.424l-0.97,0.397l-0.953,0.37l-0.938,0.341l-0.922,0.314l-0.906,0.286l-0.891,0.259l-0.874,0.231l-0.859,0.203l-0.843,0.175l-0.939,-0.595l-0.946,-0.578l-0.95,-0.561l-0.955,-0.544l-0.96,-0.527l-0.964,-0.511l-0.969,-0.495l-0.972,-0.48l-0.976,-0.464l-0.979,-0.45l-0.983,-0.434l-0.985,-0.42l-0.988,-0.406l-0.99,-0.392l-0.992,-0.379l-0.994,-0.366l-0.996,-0.352l-0.997,-0.34l-0.998,-0.328l-0.999,-0.316l-1,-0.304l-1,-0.292l-1,-0.282l-0.999,-0.27l-1,-0.261l-0.998,-0.25l-0.998,-0.24l-0.996,-0.23l-0.995,-0.222l-0.993,-0.212l-0.992,-0.204l-0.989,-0.195l-0.986,-0.187l-0.984,-0.18l-0.981,-0.172l-0.978,-0.165l-0.974,-0.158l-0.97,-0.151l-0.967,-0.145l-0.962,-0.139l-1.504,1.745l-0.099,1.074l-0.126,1.075l0.184,1.238l0.286,1.265l0.391,1.265l0.498,1.238l0.608,1.182l0.72,1.099l0.835,0.989l0.952,0.851l1.071,0.685l1.067,0.062l1.06,0.062l1.054,0.06l1.047,0.059l1.042,0.057l1.036,0.057l1.031,0.056l1.026,0.055l1.02,0.053l1.016,0.053l1.011,0.051l1.007,0.051l0.533,0.026l0.029,-0.04l0.84,-1.385l0.74,-1.454l0.627,-1.52l0.502,-1.584l0.364,-1.645l0.415,0.689l0.256,0.789l0.101,0.877l-0.05,0.951l-0.197,1.013l-0.341,1.063l-0.48,1.1l-0.616,1.125l-0.081,0.124l0.354,0.017l0.991,0.046l0.988,0.046l0.985,0.045l0.982,0.044l0.98,0.043l0.977,0.042l0.974,0.041l0.973,0.041l0.971,0.039l0.969,0.039l0.968,0.038l0.966,0.037l0.966,0.037l0.965,0.035l0.964,0.035l0.964,0.034l0.964,0.034l0.964,0.033l0.964,0.032l0.964,0.031l0.965,0.031l0.967,0.03l0.967,0.03l0.969,0.028l0.97,0.029l0.972,0.027l0.974,0.027l0.976,0.027l0.978,0.026l0.982,0.026l0.984,0.024l0.987,0.025l0.99,0.024l0.994,0.023l-0.963,0.072l-0.958,0.066l-0.954,0.062l-0.949,0.057l-0.946,0.054l-0.943,0.049l-0.94,0.045l-0.938,0.041l-0.935,0.039l-0.933,0.035l-0.931,0.032l-0.93,0.029l-0.929,0.027l-0.929,0.024l-0.928,0.022l-0.928,0.021l-0.928,0.018l-0.93,0.017l-0.93,0.016l-0.931,0.015l-0.933,0.014l-0.935,0.013l-0.937,0.013l-0.94,0.012l-0.943,0.013l-0.946,0.013l-0.95,0.013l-0.953,0.014l-0.958,0.014l-0.962,0.016l-0.968,0.017l-0.972,0.018l-0.978,0.02l-0.984,0.022l-0.99,0.024l-0.997,0.027l-0.955,0.027l-0.955,1.073l-1.12,1.096l-1.236,1.058l-1.348,1.006l-1.456,0.943l-1.562,0.867l-1.662,0.778l-1.758,0.677l-1.852,0.562l-1.941,0.436l1.012,-0.304l1.074,-0.4l1.122,-0.494l1.16,-0.587l1.183,-0.675l1.196,-0.764l1.194,-0.848l1.182,-0.932l1.155,-1.013l1.118,-1.092l1.067,-1.168l0.115,-0.142l-0.791,0.029l-1.034,0.041l-1.042,0.045l-1.052,0.049l-1.06,0.052l-1.07,0.057l-1.08,0.061l-1.09,0.066l-1.101,0.071l-1.111,0.076l-0.937,0.674l-0.85,0.866l-0.761,1.023l-0.667,1.141l-0.572,1.222l-0.472,1.266l-0.37,1.273l-0.264,1.242l-0.157,1.175l-1.334,26.303l-0.913,3.253l-0.941,-3.253l-1.334,-26.303l-0.157,-1.175l-0.264,-1.242l-0.37,-1.273l-0.472,-1.266l-0.572,-1.222l-0.667,-1.141l-0.761,-1.023l-0.85,-0.866l-0.937,-0.674l-1.111,-0.076l-1.101,-0.071l-1.09,-0.066l-1.08,-0.061l-1.07,-0.057l-1.06,-0.052l-1.052,-0.049l-1.042,-0.045l-1.034,-0.041l-0.791,-0.029l0.115,0.142l1.067,1.168l1.118,1.092l1.155,1.013l1.182,0.932l1.194,0.848l1.196,0.764l1.183,0.675l1.16,0.587l1.122,0.494l1.074,0.4l1.012,0.304l-1.941,-0.436l-1.852,-0.562l-1.758,-0.677l-1.662,-0.778l-1.562,-0.867l-1.456,-0.943l-1.348,-1.006l-1.236,-1.058l-1.12,-1.096l-0.955,-1.073l-0.956,-0.027l-0.996,-0.027l-0.99,-0.024l-0.984,-0.022l-0.978,-0.02l-0.973,-0.018l-0.967,-0.017l-0.962,-0.016l-0.958,-0.014l-0.953,-0.014l-0.95,-0.013l-0.946,-0.013l-0.943,-0.013l-0.94,-0.012l-0.937,-0.013l-0.935,-0.013l-0.933,-0.014l-0.931,-0.015l-0.93,-0.016l-0.929,-0.017l-0.929,-0.018l-0.928,-0.021l-0.928,-0.022l-0.928,-0.024l-0.93,-0.027l-0.93,-0.029l-0.931,-0.032l-0.933,-0.035l-0.935,-0.039l-0.937,-0.041l-0.94,-0.045l-0.943,-0.049l-0.946,-0.054l-0.95,-0.057l-0.954,-0.062l-0.958,-0.066l-0.962,-0.072l0.993,-0.023l0.991,-0.024l0.987,-0.025l0.984,-0.024l0.981,-0.026l0.978,-0.026l0.977,-0.027l0.973,-0.027l0.972,-0.027l0.971,-0.029l0.968,-0.028l0.968,-0.03l0.966,-0.03l0.965,-0.031l0.965,-0.031l0.964,-0.032l0.964,-0.033l0.963,-0.034l0.964,-0.034l0.964,-0.035l0.965,-0.035l0.966,-0.037l0.966,-0.037l0.968,-0.038l0.969,-0.039l0.971,-0.039l0.973,-0.041l0.974,-0.041l0.977,-0.042l0.98,-0.043l0.982,-0.044l0.985,-0.045l0.988,-0.046l0.991,-0.046l0.354,-0.017l-0.081,-0.124l-0.616,-1.125l-0.48,-1.1l-0.341,-1.063l-0.197,-1.013l-0.05,-0.951l0.101,-0.877l0.256,-0.789l0.415,-0.689l0.364,1.645l0.502,1.584l0.627,1.52l0.74,1.454l0.84,1.385l0.028,0.04l0.534,-0.026l1.007,-0.051l1.011,-0.051l1.016,-0.053l1.02,-0.053l1.026,-0.055l1.031,-0.056l1.036,-0.057l1.042,-0.057l1.047,-0.059l1.054,-0.06l1.06,-0.062l1.066,-0.062l1.072,-0.685l0.952,-0.851l0.835,-0.989l0.72,-1.099l0.608,-1.182l0.498,-1.238l0.391,-1.265l0.286,-1.265l0.184,-1.238l-0.126,-1.075l-0.099,-1.074l-1.504,-1.745l-0.962,0.139l-0.967,0.145l-0.97,0.151l-0.974,0.158l-0.978,0.165l-0.981,0.172l-0.984,0.18l-0.986,0.187l-0.989,0.195l-0.992,0.204l-0.993,0.212l-0.995,0.222l-0.996,0.23l-0.998,0.24l-0.999,0.25l-0.999,0.261l-1,0.27l-0.999,0.282l-1,0.292l-1,0.304l-0.999,0.316l-0.998,0.328l-0.997,0.34l-0.996,0.352l-0.994,0.366l-0.992,0.379l-0.99,0.392l-0.988,0.406l-0.985,0.42l-0.983,0.434l-0.979,0.45l-0.976,0.464l-0.972,0.48l-0.969,0.495l-0.964,0.511l-0.96,0.527l-0.955,0.544l-0.95,0.561l-0.945,0.578l-0.94,0.595l-0.843,-0.175l-0.859,-0.203l-0.874,-0.231l-0.89,-0.259l-0.906,-0.286l-0.922,-0.314l-0.938,-0.341l-0.954,-0.37l-0.969,-0.397l-0.986,-0.424l-1.001,-0.452l-1.017,-0.48l-1.033,-0.508l-1.049,-0.535l-1.064,-0.563l-1.08,-0.591l-1.097,-0.618l-1.112,-0.646l-1.128,-0.674l-1.143,-0.701l-1.16,-0.729l-1.175,-0.757m103.296,18.265l-1.148,3.82l-0.762,0.479l-0.784,0.465l-0.809,0.452l-0.832,0.437l-0.856,0.422l-0.88,0.406l-0.904,0.39l-0.929,0.374l-0.954,0.356l-0.978,0.338l-1.004,0.32l-1.029,0.301l-1.054,0.282l-1.08,0.261l-1.106,0.241l-1.131,0.22l-1.158,0.198l-1.184,0.176l-1.211,0.153l-1.238,0.129l-1.265,0.106l1.085,0.539l1.082,0.563l1.077,0.586l1.073,0.609l1.069,0.629l1.065,0.649l1.06,0.667l1.056,0.684l1.051,0.701l1.047,0.715l1.042,0.728l1.037,0.741l1.032,0.752l1.027,0.762l1.022,0.77l1.016,0.778l1.011,0.784l1.006,0.789l1.001,0.793l0.994,0.796l0.989,0.797l0.983,0.797l0.977,0.796l0.971,0.793l0.965,0.791l-0.343,-0.771l-0.51,-0.91l-0.661,-1.023l-0.792,-1.111l-0.907,-1.173l-1.003,-1.209l-1.081,-1.219l-1.143,-1.204l-1.185,-1.162l-1.211,-1.095l-1.217,-1.002l-1.207,-0.884l0.505,-1.08l0.784,-0.902l1.007,-0.742l1.174,-0.6l1.283,-0.478l1.336,-0.372l1.332,-0.287l1.272,-0.22l1.154,-0.171l0.98,-0.14l0.75,-0.129l0.741,-0.077l0.795,-0.055l0.852,-0.034l0.906,-0.013l0.962,0.008l1.017,0.03l1.073,0.05l1.128,0.071l1.183,0.093l1.239,0.113l1.293,0.135l1.35,0.156l1.404,0.177l-0.989,-0.264l-1.042,-0.34l-1.087,-0.409l-1.121,-0.473l-1.147,-0.533l-1.163,-0.586l-1.169,-0.635l-1.166,-0.679l-1.154,-0.716l-1.132,-0.749l-1.102,-0.777l-1.061,-0.799l-1.011,-0.816l-0.952,-0.828l-0.883,-0.834l-0.805,-0.835l-0.718,-0.832m-23.68,-36.659l-1.072,-0.104l-1.14,-0.029l-1.186,0.029l-1.207,0.073l-1.207,0.101l-1.18,0.112l-1.133,0.108l-0.755,-1.432l-0.594,-1.319l-0.465,-1.232l-0.374,-1.169l-0.316,-1.129l-0.294,-1.114l-0.307,-1.123l1.309,-0.433l1.239,-0.474l1.18,-0.507l1.132,-0.535l1.096,-0.556l1.071,-0.57l1.058,-0.579l1.055,-0.579l1.063,-0.575l1.084,-0.563l-0.613,1.095l-0.579,1.099l-0.576,1.1l-0.601,1.096l-0.656,1.09l-0.739,1.079l-0.853,1.065l-0.996,1.047l1.108,0.631l1.873,0.872l1.96,0.075l1.592,0.081l2.458,0.548l2.28,0.575l2.109,0.597l1.946,0.62l1.789,0.638l1.641,0.656l1.5,0.671l1.367,0.685l1.24,0.695l1.122,0.705l1.01,0.712l0.907,0.716l0.811,0.72l0.722,0.72l0.641,0.719l0.568,0.715l0.501,0.71l0.442,0.703l0.392,0.693l0.347,0.681l0.311,0.668l0.283,0.651l0.261,0.634l0.247,0.614l0.242,0.592l-0.869,-0.741l-0.881,-0.723l-0.892,-0.705l-0.904,-0.687l-0.916,-0.668l-0.927,-0.65l-0.939,-0.632l-0.95,-0.613l-0.961,-0.596l-0.972,-0.577l-0.982,-0.559l-0.993,-0.541l-1.003,-0.523l-1.014,-0.504l-1.024,-0.487l-1.033,-0.468l-1.044,-0.451l-1.053,-0.432l-1.063,-0.415l-1.072,-0.396l-1.082,-0.378l-1.09,-0.361l-1.1,-0.342l-1.108,-0.325l-1.117,-0.306l-1.125,-0.289m21.195,0.155l-1.075,-1.268l-1.071,-1.045l-1.067,-0.851l-1.065,-0.689l-1.062,-0.554l-1.06,-0.452l-1.059,-0.378l-1.059,-0.335l-1.058,-0.322l-1.059,-0.339l-1.059,-0.385l0.932,-0.751l0.946,-0.741l0.958,-0.732l0.97,-0.723l0.98,-0.716l0.991,-0.709l0.999,-0.702l1.008,-0.696l1.014,-0.692l1.021,-0.687l1.026,-0.683l1.03,-0.68l1.034,-0.677l1.036,-0.676l1.037,-0.675l1.038,-0.675l1.037,-0.674l1.036,-0.676l1.034,-0.677l1.03,-0.68l1.027,-0.683l1.021,-0.686l1.015,-0.691l-0.544,1.016l-0.558,1.01l-0.567,1.004l-0.575,1l-0.582,0.996l-0.585,0.995l-0.587,0.994l-0.586,0.994l-0.583,0.995l-0.579,0.998l-0.572,1.002l-0.562,1.007l-0.551,1.013l-0.538,1.02l-0.522,1.028l-0.504,1.038l-0.484,1.048l-0.462,1.06l-0.438,1.073l-0.412,1.088l-0.382,1.102l-0.353,1.119" style="fill:#fff;"/><path id="shape1" d="M414.526,345.356c1.172,-0.102 2.329,-0.235 3.022,-1.295c0.858,-1.373 0.085,-2.649 -0.144,-3.958c2.303,0.604 4.556,2.66 3.528,5.639c-0.814,1.692 -5.174,2.275 -6.406,-0.386Z" style="fill:#fff;"/></svg>