<?xml version="1.0" encoding="UTF-8" standalone="no"?><!DOCTYPE svg PUBLIC "-//W3C//DTD SVG 1.1//EN" "http://www.w3.org/Graphics/SVG/1.1/DTD/svg11.dtd"><svg width="100%" height="100%" viewBox="0 0 1024 1024" version="1.1" xmlns="http://www.w3.org/2000/svg" xmlns:xlink="http://www.w3.org/1999/xlink" xml:space="preserve" xmlns:serif="http://www.serif.com/" style="fill-rule:evenodd;clip-rule:evenodd;stroke-linejoin:round;stroke-miterlimit:2;"><path d="M826.308,101.457l19.953,0.987c7.748,0.804 16.007,2.156 24.778,4.056c8.624,2.047 17.285,4.714 25.983,8.003c8.697,3.362 16.481,7.711 23.352,13.047c6.943,5.116 12.571,11.438 16.883,18.966c4.312,7.382 6.469,16.007 6.469,25.874c0,7.309 -1.755,13.85 -5.263,19.624c-3.508,5.92 -8.04,11.146 -13.594,15.678c-5.555,4.385 -11.804,8.222 -18.748,11.511c-6.943,3.289 -13.704,5.994 -20.282,8.113c-6.724,1.974 -12.973,3.472 -18.747,4.495l-13.704,1.425l-30.15,-1.205l-16.335,-2.851c-4.166,-1.169 -6.761,-2.558 -7.784,-4.166l-5.482,-14.143c11.841,0.146 22.658,-0.804 32.452,-2.85c4.166,-0.877 8.332,-2.047 12.498,-3.509c4.239,-1.388 8.076,-3.215 11.511,-5.481c3.509,-2.339 6.579,-5.08 9.21,-8.223c2.558,-3.069 4.312,-6.87 5.262,-11.402c1.243,-5.701 1.316,-10.744 0.219,-15.129c-1.096,-4.312 -2.923,-8.149 -5.481,-11.512c-2.631,-3.215 -5.774,-5.956 -9.429,-8.222c-3.654,-2.193 -7.382,-4.02 -11.182,-5.482c-3.801,-1.462 -7.492,-2.521 -11.073,-3.179l-8.881,-1.206c-1.973,-0.146 -4.385,-0.183 -7.236,-0.11l-8.77,0.22l-9.429,0.767l-8.99,0.877l-0.986,21.927l-0.549,24.119l-0.328,23.791l-0.22,21.378l0,28.395l0.22,20.831l0.109,17.322l-4.824,3.179l-58.763,-11.84l-3.618,-2.412c1.023,-26.02 1.608,-50.468 1.754,-73.345l-0.219,-29.711l-0.877,-28.724l-1.864,-25.106c-0.877,-7.455 -2.01,-13.668 -3.399,-18.638l1.535,-4.385l41.332,2.193l6.907,-0.768l17.322,-1.535l23.571,-1.315c8.552,-0.439 16.847,-0.548 24.887,-0.329m-138.467,19.295l-18.09,29.273l-20.063,-0.768l-17.103,-0.658c-5.993,-0.146 -11.073,-0.073 -15.239,0.22c-9.647,0.584 -17.249,1.644 -22.803,3.179c-5.555,1.535 -8.479,4.239 -8.771,8.113c-0.219,3.947 1.718,6.468 5.81,7.565l18.419,1.754l33,2.631c9.282,1.608 17.139,3.691 23.571,6.249c6.432,2.631 11.731,5.591 15.897,8.88c4.02,3.289 7.162,6.651 9.428,10.087c2.266,3.435 3.728,6.834 4.386,10.196c0.657,3.362 0.95,6.468 0.877,9.318c-0.293,4.897 -2.01,9.721 -5.153,14.472c-3.143,4.824 -7.455,9.209 -12.937,13.156c-5.482,4.02 -12.023,7.492 -19.624,10.415c-7.602,2.851 -16.007,4.678 -25.216,5.482l-11.621,0.767l-13.924,0.439l-15.019,0.11l-15.24,-0.22l-36.179,-1.096l-10.415,-31.574l2.631,-3.289l21.269,2.083l18.638,1.206c6.578,0.292 12.462,0.292 17.651,0l15.239,-0.768l13.704,-1.644c4.02,-0.877 7.382,-2.12 10.087,-3.728c2.631,-1.608 4.166,-3.947 4.604,-7.017c0.439,-2.996 -0.438,-5.372 -2.631,-7.126c-2.266,-1.827 -5.591,-3.179 -9.977,-4.056l-16.006,-1.974l-21.269,-1.096c-23.389,-0.804 -40.491,-4.97 -51.309,-12.498c-10.744,-7.455 -15.714,-17.724 -14.91,-30.807c0.219,-5.409 1.718,-10.086 4.495,-14.033c2.704,-3.947 6.176,-7.382 10.415,-10.306c4.24,-2.85 8.954,-5.226 14.143,-7.126c5.263,-1.973 10.598,-3.545 16.007,-4.714l15.896,-2.96l13.485,-1.754l14.034,-1.206l15.129,-0.549l15.239,0.11l14.472,0.439l32.451,2.411l2.522,2.412m-34.754,185.062l1.206,0.877l0.329,0.439l0.109,0.548l-1.315,11.95l-0.877,8.551l-0.439,6.14l0,5.152l0.22,5.372l0,0.11l0.438,6.688l0,0.548l-0.548,1.425l-0.329,0.439l-0.439,0.219l-10.963,3.07l-0.767,-0.11l-0.549,-0.548l-0.657,-1.425l-0.11,-0.439l0.11,-9.538l0.219,-4.056l0,-3.728l0,-3.289l0.11,-1.316l-4.276,0l-7.674,0l-8.223,0.11l-6.688,0.11l-4.604,0.219l-3.728,0.11l-3.07,0.219l-0.109,0l-1.864,0.109l0,3.29l-0.219,2.521l0,3.179l-0.11,3.509l-0.438,8.332l-0.11,0.329l-0.658,1.425l-0.438,0.548l-0.768,0.11l-9.757,-1.974l-0.439,-0.219l-0.329,-0.438l-0.548,-1.426l-0.109,-0.548l0.328,-6.578l-0.109,-7.236l-0.219,-7.784l-0.549,-7.564l-1.425,-17.432l0.11,-0.548l0.438,-0.439l1.316,-0.877c0.073,-0.146 0.183,-0.219 0.329,-0.219l11.073,-2.083l0.877,0.219l1.644,1.096l0.329,0.439l0.11,0.439l0,6.687l-0.11,6.578l0,0.11l-0.109,6.468l4.275,-0.219l8.004,-0.219l9.099,-0.11l8.771,-0.219l9.867,0l-0.329,-6.359l0,-0.11l-0.11,-6.358l-0.219,-6.14l0.11,-0.548l0.438,-0.439l1.645,-1.096c0.073,-0.146 0.219,-0.219 0.438,-0.219l0.439,0.109l11.621,3.947l0.329,0.11m32.013,-4.276c1.389,3.216 3.106,6.359 5.153,9.429l0.109,0c1.681,2.631 3.911,5.372 6.688,8.222l-0.11,0c2.778,2.631 6.03,5.007 9.758,7.126l6.249,-2.96l5.482,-3.837l4.385,-4.166l3.399,-4.276c2.338,-3.142 4.202,-6.358 5.591,-9.647c0.073,-0.293 0.219,-0.475 0.438,-0.549l0.549,-0.219l1.644,0c0.292,0 0.548,0.11 0.767,0.329l7.017,6.359l0.219,0.329l0.11,0.438l0,1.535l-0.11,0.658l-7.784,9.867l-9.209,8.113l0.11,0c-3.435,2.777 -7.309,5.043 -11.621,6.797l-0.11,7.455l0.219,6.249l0.219,5.372l-0.109,0.439l-0.219,0.438l-1.316,1.097l-0.767,0.219l-10.416,0l-0.767,-0.329l-0.877,-0.877l-0.219,-0.329l-0.11,-0.438l0.219,-5.482l0.11,-6.468l0,-7.784l-5.153,-3.289l0.11,0.109l-5.263,-4.056l-4.495,-4.276l-3.618,-3.947c-2.704,-3.143 -5.043,-6.359 -7.016,-9.648l-0.219,-0.657l0.219,-1.426l0.438,-0.657l7.127,-5.811c0.073,-0.146 0.219,-0.219 0.438,-0.219l0.439,-0.11l1.535,0.219l0.438,0.22l0.329,0.438m168.178,255.995l-1.974,1.425l-65.341,-7.346l-1.864,-2.521l0.439,-19.953l-0.329,-23.352l-0.768,-24.887l-1.315,-24.558l-2.741,-43.854l-21.379,0c-8.04,0 -15.495,0.183 -22.365,0.549l-17.322,1.534l-1.206,0l-1.864,-0.767l-2.083,-1.096l-32.89,-38.811l3.289,-3.069l19.076,1.096l35.631,0.987l45.827,0.657l50.322,-0.328l47.691,-1.426l39.687,-3.069l4.495,1.425l10.963,12.279l11.073,12.937l9.319,11.401l5.701,7.784l-2.302,3.509l-42.648,-3.837c-9.282,-0.658 -30.916,-1.133 -64.903,-1.426l-0.548,13.485l-0.877,25.655l-0.768,31.903l0.11,18.199l0.548,21.269l0.548,20.063l0.768,14.143m-44.731,-224.749l-8.441,0l-9.319,0l-8.661,0.219l-6.798,0.548l-0.438,0l-0.658,-0.219l-0.877,-0.439l-12.718,-15.129l1.206,-1.206l7.456,0.439l13.813,0.438l17.871,0.219l15.129,0l87.707,0.768l18.638,-0.548l15.458,-1.316l1.645,0.658l4.275,4.714l4.386,5.043l3.617,4.495l2.193,2.96l-0.877,1.316l-16.664,-1.425c-4.897,-0.293 -45.023,-0.768 -120.378,-1.426l-7.565,-0.109m-113.47,124.872l19.843,22.475l16.555,18.09l15.678,16.883l-0.768,3.399l-10.196,4.166l-7.893,3.289l-5.372,2.412l-3.289,1.316l-3.509,1.425l-3.727,1.316l-3.399,0l-4.495,-5.153l-4.824,-5.701l-6.139,-7.236l-6.14,-0.219l-10.744,-0.329l-13.594,-0.329l-15.13,0l-13.594,0l-13.376,0.219l-11.621,0.329l-8.551,0.11l-12.827,12.937l-5.482,5.372l-3.399,0l-8.661,-4.934l-7.126,-3.837l-5.701,-2.851l-4.056,-1.425l-3.399,-1.096l-3.07,-1.097l-1.096,-4.056l16.555,-13.266l14.91,-13.485c5.335,-5.043 10.013,-10.195 14.033,-15.458l20.282,-27.518c5.262,-7.894 8.04,-14.252 8.332,-19.076c0.293,-2.339 -0.256,-4.495 -1.644,-6.469c-1.389,-2.046 -2.924,-3.837 -4.605,-5.372c-2.046,-1.681 -4.312,-3.179 -6.797,-4.495l0.658,-3.179l9.757,-2.083l8.442,-1.973l7.674,-2.303l9.758,-3.618l3.289,-1.096l2.74,1.535l12.279,19.186l14.472,19.953c5.555,7.528 11.877,15.276 18.967,23.242m-20.173,33.658l-0.658,-0.767l-0.548,-0.768l-10.854,-13.923l-8.77,-11.293l-7.894,-10.524l-8.771,13.594l-8.113,12.389l-8.551,11.95l16.007,-0.439l17.87,-0.219l20.282,0m-244.702,-369.136l-8.99,59.969l-4.166,26.203l-4.714,26.421l-4.934,25.216l-5.043,21.927l-4.385,4.824l-1.755,-0.439l-0.438,0.439l-1.754,-0.439l-0.439,0.439l-1.754,-0.329l-0.438,0.329l-1.755,-0.329l-0.438,0.329c-10.379,-2.339 -20.977,-5.555 -31.794,-9.648c-9.355,-3.435 -19.442,-8.15 -30.259,-14.143c-10.744,-5.993 -20.976,-13.777 -30.697,-23.352c-6.651,-6.285 -12.352,-12.571 -17.103,-18.857l-12.498,-17.87c-3.435,-5.555 -6.213,-10.708 -8.332,-15.458l-1.097,-2.412l-10.525,17.431c-6.431,10.014 -14.69,19.99 -24.777,29.93c-9.721,9.356 -19.113,17.249 -28.176,23.681c-9.063,6.432 -17.102,11.731 -24.119,15.897c-8.259,4.751 -16.153,8.552 -23.681,11.402l-0.658,-0.548l-1.534,0.548l-0.658,-0.548l-0.11,0.11l-0.548,0.109l-0.877,0.329l-0.658,-0.548l-1.535,0.548l-0.658,-0.548l-1.534,0.548l-4.605,-3.947c-2.485,-6.139 -5.007,-13.083 -7.565,-20.83l-7.345,-24.448l-6.907,-25.764l-6.249,-25.655c-4.605,-19.222 -9.063,-39.029 -13.376,-59.421l2.522,-6.139l46.156,-22.585l1.096,0.548l1.096,-0.548l1.097,0.548l1.096,-0.548l1.096,0.548l1.097,-0.548l1.096,0.548l1.096,-0.548l4.605,2.193c1.754,14.179 3.801,28.687 6.14,43.524l3.069,19.954l3.947,21.488c1.316,7.309 2.741,14.508 4.276,21.598l3.289,15.458l7.236,-5.811c5.92,-4.97 12.681,-12.279 20.282,-21.926c6.797,-8.552 12.315,-17.725 16.554,-27.518c4.167,-9.941 7.382,-19.296 9.648,-28.067c2.631,-10.159 4.532,-20.245 5.701,-30.259l47.581,-1.863l0,0.109l2.193,-0.109l0,0.109l2.193,-0.109l0,0.109l2.192,-0.109l0,0.109l2.193,-0.109c0.877,10.525 2.448,20.94 4.714,31.245c2.12,8.99 5.116,18.528 8.99,28.615c4.02,10.013 9.465,19.295 16.335,27.847c6.871,8.697 13.083,15.494 18.638,20.391l14.033,11.183c3.07,2.12 5.957,3.764 8.661,4.934l0,-0.11c2.047,-14.106 3.691,-28.724 4.934,-43.854c1.169,-15.129 1.9,-29.016 2.192,-41.66c0.658,-14.837 0.878,-29.346 0.658,-43.525l4.386,-2.85l1.315,0.658l0.877,-0.658l1.316,0.658l0.877,-0.658l1.316,0.658l0.877,-0.658l1.315,0.658l0.877,-0.658l45.169,21.049l2.851,5.592m15.349,138.796l0.657,-12.498l0.549,-17.761l0.438,-18.857l0.11,-16.116l-0.658,-28.176l-0.768,-22.694l-0.986,-20.392l4.604,-2.851l58.983,-3.398l3.289,2.521c-1.315,17.396 -2.412,34.279 -3.289,50.651l-1.096,21.708l-0.768,22.036l-0.219,20.721c0,6.578 0.11,12.461 0.329,17.651l-1.644,2.192l-57.777,6.469l-1.754,-1.206m-219.158,71.81l-7.565,0.109c-75.355,0.658 -115.48,1.133 -120.377,1.426l-16.665,1.425l-0.877,-1.316l2.193,-2.96l3.618,-4.495l4.385,-5.043l4.276,-4.714l1.644,-0.658l15.459,1.316l18.637,0.548l87.707,-0.768l15.13,0l17.87,-0.219l13.814,-0.438l7.455,-0.439l1.206,1.206l-12.718,15.129l-0.877,0.439l-0.657,0.219l-0.439,0l-6.797,-0.548l-8.661,-0.219l-9.319,0l-8.442,0m97.135,-30.259l5.153,-1.425l0.329,-0.11l1.973,0c6.652,1.462 12.681,3.472 18.09,6.03l6.468,3.837l5.811,4.934l0.11,0.109c1.681,1.901 3.069,3.984 4.166,6.249c1.023,2.412 1.535,5.043 1.535,7.894c0,2.924 -0.695,5.555 -2.084,7.894l0,0.109c-1.534,2.339 -3.435,4.422 -5.7,6.249l-0.11,0c-2.266,1.901 -4.751,3.509 -7.455,4.824l-8.113,3.728l-7.346,2.412l-5.262,1.425l-1.206,0.11l-0.11,0l-0.877,-0.11l-0.109,0c-6.724,-1.316 -12.718,-3.289 -17.98,-5.92l-6.578,-3.728l0,-0.109l-5.811,-4.934c-1.754,-2.046 -3.179,-4.203 -4.275,-6.468c-1.097,-2.339 -1.645,-4.934 -1.645,-7.784c0,-2.924 0.767,-5.555 2.302,-7.894c1.462,-2.412 3.326,-4.495 5.592,-6.249l0,-0.11c2.265,-1.9 4.824,-3.545 7.674,-4.933l8.113,-3.509c2.558,-1.023 4.97,-1.863 7.236,-2.521l0.109,0m8.771,11.402l-3.289,-0.987l-0.438,0c-4.093,1.389 -7.784,2.887 -11.073,4.495l-4.057,2.522l-3.508,2.631l0,0.11c-1.023,0.877 -1.827,1.863 -2.412,2.96c-0.585,1.023 -0.877,2.01 -0.877,2.96c0,1.681 0.475,3.216 1.425,4.604c1.023,1.389 2.266,2.632 3.728,3.728l5.262,3.07l5.482,2.302l0.109,0l4.934,1.644l2.631,0.658l0.767,0.11l0.439,0.109c3.801,-1.388 7.236,-2.923 10.306,-4.604l0,0.11l3.946,-2.412l3.399,-2.741l2.193,-2.851l0.109,-0.109c0.512,-1.024 0.768,-2.047 0.768,-3.07c0,-1.681 -0.439,-3.179 -1.316,-4.495l-3.508,-3.837l-4.934,-3.07l-5.372,-2.193l-4.824,-1.644l0.11,0m90.777,2.85l-4.605,-0.219l-5.372,-0.219l-5.591,-0.329l-5.153,-0.219l-2.631,-0.11l-0.22,6.03l-0.219,6.907l7.017,0l8.661,-0.11l7.345,-0.219l4.057,-0.329l0.548,0.11l0.548,0.438l0.658,0.987l0.109,0.438l-0.109,0.548l-3.947,8.552l-0.219,0.329l-0.11,0.109l-0.219,0.549l-0.548,0.438l-0.549,0l-2.302,0.11l-3.727,-0.11l-4.605,-0.109l-5.043,-0.11l-4.824,0l-2.85,0.11l0,4.933l0.219,6.468l0.329,5.811l0.548,3.947l0,0.438l-0.329,1.535l-0.219,0.439l-0.329,0.329l-10.964,5.92l-0.657,0.109l-0.549,-0.219l-0.328,-0.548l-0.439,-1.425l-0.11,-0.329l0.329,-15.239l0.11,-6.688l0.11,-6.907l0.109,-6.578l0.11,-5.92l-0.11,-9.538l0,-0.11l0,-7.016l0,-5.92c0,-0.293 0.11,-0.549 0.329,-0.768l1.096,-1.096l0.439,-0.22l0.548,-0.109l11.183,1.864l8.113,0.657l8.77,0l7.565,-0.438l4.495,-0.439l0.548,0.11l0.548,0.439l0.549,0.877l0.109,0.438l0,0.548l-3.837,9.758l-0.11,0.109l-0.548,0.658c-0.146,0.585 -0.511,0.804 -1.096,0.658l-0.329,0l-2.302,-0.11m127.723,-14.142l11.95,-0.768l0,-0.11l0.109,0.11l3.18,3.289l3.289,4.057l0,0.109l2.85,3.18l-10.305,-0.877c-2.851,-0.22 -9.538,-0.366 -20.063,-0.439c-0.512,0 -0.95,0.219 -1.316,0.658c-0.438,0.365 -0.658,0.804 -0.658,1.315l-0.109,4.057l-0.219,7.893l-0.22,9.758l0,5.701l0.22,6.249l0,6.359l0.219,2.412l-16.884,-1.864l0,-5.043l-0.109,-7.127l-0.22,-7.564l0,-0.11l-0.438,-7.565l-0.768,-13.375l-0.548,-1.206c-0.438,-0.438 -0.877,-0.658 -1.315,-0.658l-6.688,0l-6.797,0.11l-0.11,0l-5.153,0.548l-0.109,0l-0.11,-0.109l-7.674,-9.1l2.96,0.11l10.963,0.328l14.033,0.22l15.349,-0.11l14.691,-0.438m-479.099,87.049l4.166,-2.96l69.398,-12.937l5.372,3.727l-0.767,18.09l-0.768,19.624l-0.767,24.668l12.169,0.219l21.379,0.219l26.641,0.329l27.518,0.439l24.558,0.767l17.212,0.658l0,-24.996l-0.438,-20.721l-0.439,-19.296l5.482,-3.727l67.424,6.687l3.838,2.961c-1.974,19.66 -3.509,38.883 -4.605,57.667l-1.316,25.216l-0.986,25.544l-0.329,24.668c0,7.893 0.256,15.056 0.767,21.488l-1.754,5.043l-62.491,6.03l-2.522,-4.495l-1.096,-27.299l-0.329,-10.963l-0.329,-10.525l-0.109,-9.1l-0.22,-6.468l-0.219,-3.947l0,-3.947l-12.717,-0.109l-15.788,-0.439l-17.651,-0.658l-18.199,-0.438l-17.651,-0.439l-17.98,-0.329l-16.554,-0.438l-13.705,0l0.11,8.222l0.329,10.964l0.11,12.498l0.219,12.717l0.767,31.904l-2.302,4.824l-66.877,-10.306l-1.534,-4.604l0.986,-21.489l-0.329,-23.461l-1.096,-24.339l-1.535,-23.461c-1.389,-17.542 -3.07,-35.302 -5.043,-53.282m477.564,106.125l-26.86,29.711l-1.426,0l-1.644,0.109l-1.754,0.22c-26.312,1.242 -50.03,0.146 -71.152,-3.289c-8.99,-1.462 -17.871,-3.545 -26.641,-6.25c-8.698,-2.704 -16.555,-6.139 -23.572,-10.305c-6.943,-4.312 -12.717,-9.502 -17.322,-15.568c-4.531,-6.066 -7.199,-13.339 -8.003,-21.817c-1.023,-10.086 -0.438,-19.332 1.754,-27.737c2.12,-8.406 4.605,-15.824 7.455,-22.256c3.289,-7.309 7.309,-13.924 12.06,-19.844l0.877,-0.219l2.302,0.219l20.94,1.535l25.435,1.206l27.08,0.548l26.422,0.329l23.9,0.11l18.418,-0.22l2.193,2.303l-12.608,26.312l-1.206,0.877l-0.877,0.658l-0.768,0.109l-14.362,0.549l-22.474,0.548l-27.409,0l-29.272,-1.097c-1.389,2.12 -2.595,4.751 -3.618,7.894l-2.96,9.648l18.967,0.658l20.391,0.438l18.529,-0.438l18.747,-0.658l20.172,-1.097l1.097,1.755l-5.372,9.757l-4.166,7.784l-2.96,5.591c-0.293,0.658 -1.901,1.17 -4.824,1.535l-11.512,0.987l-15.677,0.548l-17.871,0.11l-17.431,0l-15.02,-0.549c2.923,3.582 7.053,6.834 12.388,9.758c5.336,2.923 11.621,5.043 18.857,6.359l14.143,2.083l14.691,0.986l14.8,0.329l13.814,-0.219l30.698,-1.645l2.631,1.645" style="fill:#fff;fill-rule:nonzero;"/></svg>